<?xml version="1.0" standalone="no"?>
<!DOCTYPE svg PUBLIC "-//W3C//DTD SVG 20010904//EN"
 "http://www.w3.org/TR/2001/REC-SVG-20010904/DTD/svg10.dtd">
<svg version="1.0" xmlns="http://www.w3.org/2000/svg"
 width="372.000000pt" height="72.000000pt" viewBox="0 0 372.000000 72.000000"
 preserveAspectRatio="xMidYMid meet">
<metadata>
Created by potrace 1.10, written by Peter Selinger 2001-2011
</metadata>
<g transform="translate(0.000000,72.000000) scale(0.100000,-0.100000)"
fill="#000000" stroke="none">
<path d="M0 711 c0 -10 112 -231 146 -286 22 -37 24 -49 22 -145 l-3 -105 61
-3 62 -3 -5 103 c-5 98 -1 125 26 168 5 8 12 22 15 30 4 8 15 29 26 45 11 17
24 39 29 50 5 11 25 47 44 79 20 33 34 63 31 68 -9 14 -124 10 -124 -4 0 -7
-16 -47 -36 -88 -21 -41 -42 -85 -47 -97 -12 -26 -47 -31 -47 -8 0 12 -44 108
-85 186 -8 15 -21 19 -62 19 -29 0 -53 -4 -53 -9z"/>
<path d="M2030 522 c0 -110 -3 -233 -6 -275 l-7 -77 172 0 171 0 0 45 0 44
-116 3 -116 3 1 228 2 227 -51 0 -50 0 0 -198z"/>
<path d="M589 570 c-19 -10 -49 -36 -65 -57 -27 -35 -29 -44 -29 -128 0 -81 3
-94 27 -131 67 -103 231 -115 314 -24 13 14 24 32 24 41 0 8 6 21 13 27 7 8
12 40 12 82 0 42 -5 74 -12 82 -7 6 -13 19 -13 27 -1 24 -41 64 -83 84 -49 22
-140 21 -188 -3z m160 -96 c17 -21 21 -41 21 -94 0 -86 -22 -120 -79 -120 -70
0 -112 81 -86 166 19 63 31 74 80 74 35 0 48 -5 64 -26z"/>
<path d="M979 583 c0 -5 0 -82 1 -172 1 -136 4 -168 18 -186 28 -37 70 -55
126 -55 44 0 58 5 86 30 18 17 35 30 37 30 2 0 9 -14 14 -30 10 -27 15 -30 52
-30 l42 0 0 210 0 210 -58 0 -58 0 6 -117 c6 -111 5 -121 -17 -163 -22 -43
-25 -45 -71 -48 -44 -3 -48 -1 -58 25 -7 17 -9 80 -7 166 l4 137 -58 0 c-32 0
-58 -3 -59 -7z"/>
<path d="M1475 380 l0 -210 55 0 56 0 -4 123 -4 122 31 33 c25 27 37 32 75 32
49 0 54 6 59 75 2 29 0 30 -43 33 -40 3 -50 -1 -75 -27 -40 -40 -65 -41 -65
-1 0 29 -2 30 -42 30 l-43 0 0 -210z"/>
<path d="M2509 570 c-20 -10 -49 -36 -65 -57 -27 -36 -29 -44 -29 -129 0 -73
4 -96 18 -111 9 -11 17 -23 17 -27 0 -12 30 -39 66 -58 45 -24 144 -24 182 -1
44 27 82 66 82 83 0 9 6 22 13 28 7 8 12 40 12 82 0 42 -5 74 -12 82 -7 6 -13
19 -13 27 -1 24 -41 64 -83 84 -51 23 -141 22 -188 -3z m160 -96 c17 -21 21
-41 21 -94 0 -86 -22 -120 -79 -120 -70 0 -112 81 -86 166 19 63 31 74 80 74
35 0 48 -5 64 -26z"/>
<path d="M2936 571 c-82 -54 -87 -159 -10 -215 18 -14 18 -15 -9 -40 -32 -30
-34 -49 -7 -76 22 -22 26 -40 9 -40 -6 0 -26 -12 -45 -26 -28 -22 -34 -33 -34
-64 0 -49 32 -90 70 -90 16 0 32 -4 35 -10 8 -13 165 -13 165 0 0 6 15 10 33
10 18 0 43 7 55 16 31 22 64 90 57 117 -22 79 -58 100 -180 107 -88 5 -90 6
-90 30 0 23 4 25 60 31 110 10 147 41 155 129 4 45 9 56 25 59 25 4 35 19 35
54 l0 27 -147 0 c-128 0 -152 -3 -177 -19z m159 -71 c19 -37 19 -55 -2 -91
-14 -24 -24 -29 -55 -29 -34 0 -39 4 -52 35 -11 27 -13 42 -5 63 16 42 29 52
65 52 27 0 36 -6 49 -30z m55 -352 c7 -18 4 -28 -16 -46 -21 -18 -37 -22 -96
-22 -52 0 -76 4 -90 17 -22 20 -23 31 -1 55 13 15 32 18 105 18 83 0 89 -2 98
-22z"/>
<path d="M3393 572 c-87 -47 -128 -184 -84 -283 36 -80 98 -119 188 -119 73 1
128 30 159 86 19 32 23 54 23 124 0 102 -22 151 -85 186 -50 29 -153 32 -201
6z m164 -111 c31 -46 31 -116 0 -162 -30 -44 -86 -53 -123 -18 -21 20 -24 31
-24 96 0 99 17 124 80 121 38 -3 48 -8 67 -37z"/>
</g>
</svg>
